P2
# Created by IrfanView
40 40
255
254 249 221 145 220 240 243 247 252 252 253 253 253 255 254 254 254 
255 255 254 254 254 254 254 254 254 253 253 248 235 204 189 189 
212 238 252 254 255 254 254 253 253 246 150 130 139 129 128 211 251 251 253 254 253 255 254 255 
255 253 253 255 255 255 255 255 253 252 228 190 201 229 250 253 
238 209 226 252 252 255 255 254 249 251 209 159 188 169 157 125 239 252 253 251 249 255 254 253 
255 255 255 254 252 252 252 254 233 197 199 241 254 254 252 252 
254 254 209 241 255 252 254 254 254 254 247 142 204 199 195 192 237 251 254 253 253 253 255 255 
255 252 253 254 254 253 250 207 194 228 254 254 254 254 254 254 
253 254 246 213 252 255 255 253 254 255 251 204 128 191 206 210 193 228 252 254 254 252 255 254 
255 254 253 254 249 218 185 216 254 254 253 252 253 255 255 253 
254 250 243 213 253 255 253 254 250 254 254 251 226 168 198 246 231 212 188 208 223 231 249 254 
249 246 234 205 187 210 248 254 253 254 255 255 255 159 158 204 
254 254 219 229 255 255 252 254 254 255 254 252 252 251 251 254 250 255 251 235 221 212 192 187 
189 194 205 226 247 254 254 254 254 254 255 253 181 164 122 113 
138 219 198 255 254 253 255 253 254 251 255 255 255 255 255 255 254 255 254 254 253 252 254 253 
253 253 254 254 254 254 254 253 255 254 255 211 149 158 121 84 
107 179 192 254 255 255 254 253 254 255 255 254 254 253 253 254 254 254 254 254 254 254 253 248 
205 162 140 141 146 150 148 167 201 250 237 140 165 128 100 79 
40 56 51 170 254 249 255 253 254 254 255 254 254 253 253 254 251 252 255 254 253 228 142 121 
165 216 243 245 244 244 200 98 97 90 138 176 131 103 88 34 
0 21 34 7 213 255 253 254 255 254 255 254 255 254 254 254 254 254 254 246 140 109 193 228 
229 225 227 227 228 222 126 26 49 78 105 139 115 90 46 1 
5 6 5 51 188 255 255 255 255 255 255 254 255 254 253 253 254 253 220 81 144 199 203 203 
203 201 206 208 209 207 101 17 9 3 22 90 96 71 6 0 
0 0 2 119 255 253 254 254 254 254 254 255 255 254 254 253 255 210 71 143 160 177 183 189 
194 194 188 185 187 182 93 37 40 30 17 8 49 50 0 0 
1 2 69 253 252 255 255 254 254 254 254 255 255 254 254 254 225 57 119 139 148 156 169 170 
173 179 175 171 164 154 92 33 37 42 42 35 1 18 14 2 
1 24 226 255 255 255 254 254 255 255 254 255 255 254 254 249 78 94 119 139 138 144 137 143 
145 153 159 158 147 131 82 33 32 37 35 39 26 0 6 4 
4 188 255 253 255 253 255 254 254 255 255 255 255 255 254 139 67 108 110 112 112 111 110 115 
122 124 128 132 139 129 78 26 27 29 38 35 43 25 1 2 
0 118 255 255 255 255 255 254 255 255 253 255 255 253 230 37 77 88 87 87 83 87 87 92 
97 99 99 106 111 104 90 21 24 24 31 33 32 49 40 10 
2 11 219 255 252 255 255 254 255 252 255 255 254 254 126 46 64 68 64 67 67 67 69 68 
71 76 75 62 51 55 68 53 16 20 25 24 34 35 47 39 
1 0 111 255 253 255 255 255 255 251 255 255 254 247 39 53 53 54 51 53 54 50 53 57 
52 37 21 21 34 44 43 57 29 14 19 19 28 29 37 45 
3 0 25 243 255 254 253 255 255 255 253 255 255 202 25 52 49 48 47 46 45 44 43 40 
17 3 9 18 20 27 38 36 45 16 11 18 18 24 25 38 
14 4 0 191 255 255 255 253 255 255 254 255 254 142 39 47 48 42 42 39 36 39 31 7 
5 4 5 8 11 17 21 28 35 24 6 12 12 12 24 29 
25 0 2 132 255 255 255 255 254 253 255 255 254 103 38 39 45 38 40 39 35 34 16 4 
1 0 2 5 6 10 15 22 21 26 9 5 8 11 15 18 
28 0 1 93 255 255 252 255 254 252 255 253 255 83 20 22 30 30 31 33 31 24 8 1 
1 2 4 4 3 5 8 10 15 18 12 3 4 11 5 17 
30 8 0 66 252 254 255 254 253 255 255 254 255 71 0 3 10 15 12 16 20 13 6 7 
7 5 1 1 3 4 2 4 10 10 11 3 0 1 10 18 
29 21 4 55 255 252 255 255 253 255 254 253 255 80 0 2 17 19 19 21 16 16 12 9 
8 5 4 3 3 2 1 4 5 10 9 0 2 2 5 20 
38 37 5 66 254 255 255 255 252 255 255 252 255 104 1 3 14 35 28 26 22 21 18 16 
13 10 8 7 6 4 3 6 0 9 5 6 2 0 4 39 
43 48 10 97 255 253 254 255 255 254 254 255 252 145 1 1 10 38 36 38 38 32 31 24 
20 16 13 10 8 6 4 2 4 5 3 2 0 5 4 51 
62 61 5 139 254 255 254 254 255 253 253 255 253 210 6 11 3 39 49 48 42 37 34 33 
29 24 19 16 12 9 6 3 8 2 3 2 0 2 24 72 
70 61 2 198 255 253 255 255 254 255 255 252 255 252 37 34 8 10 52 59 55 49 48 42 
38 33 28 24 19 14 10 11 5 4 2 8 4 2 61 81 
78 56 30 252 251 255 254 255 254 255 255 252 255 254 137 48 11 3 31 62 61 54 54 50 
46 41 36 32 26 19 15 13 7 6 3 0 1 42 86 84 
86 23 122 255 255 253 255 253 255 255 255 255 255 254 238 24 69 6 2 30 67 69 58 57 
54 49 45 41 34 26 21 14 12 7 5 7 33 86 92 90 
81 15 232 254 254 255 254 255 255 255 252 255 253 255 254 149 42 44 7 8 28 64 66 63 
60 57 53 49 42 33 27 21 14 9 7 39 91 92 94 94 
29 138 253 255 255 255 254 255 255 255 255 255 255 255 255 252 71 80 25 6 3 19 56 68 
63 63 61 55 49 41 34 28 17 18 63 96 96 96 95 62 
58 253 255 249 255 253 255 255 255 255 255 255 255 255 255 254 233 39 99 28 9 1 6 28 
59 66 63 64 56 45 38 38 59 92 94 98 94 96 73 36 
232 253 253 255 254 255 255 255 255 255 255 255 255 255 255 255 254 225 41 89 45 14 3 6 
0 14 35 50 58 61 74 85 89 92 96 95 98 71 40 218 
254 255 254 251 255 253 253 255 255 255 255 255 255 255 255 254 255 253 239 77 66 93 18 10 
13 9 18 29 43 65 67 80 85 92 94 90 46 72 227 255 
252 255 255 255 255 255 255 255 255 255 255 255 255 255 255 255 255 254 254 251 153 34 87 82 
25 13 26 31 43 58 71 77 91 82 52 29 147 249 255 255 
254 255 255 252 255 252 254 255 255 255 255 255 255 255 255 255 254 255 254 255 254 240 142 48 
67 63 60 62 51 45 41 37 21 36 134 240 253 255 252 254 
252 255 254 253 255 255 254 255 255 255 255 255 255 255 255 253 255 248 235 216 201 176 160 140 
95 47 20 15 13 11 21 43 89 143 151 170 198 210 236 245 
255 249 254 255 255 255 254 255 255 255 255 255 255 255 255 255 254 252 246 235 226 213 196 179 
166 150 141 136 132 136 140 152 157 169 195 210 218 239 243 252 
254 255 253 255 252 255 255 